<svg width="512" height="512" viewBox="0 0 512 512" fill="none" xmlns="http://www.w3.org/2000/svg">
<path d="M80.5144 316.466C76.925 315.112 76.8339 309.918 80.2411 300.881C81.901 296.479 86.1277 290.133 92.9212 281.844C99.8021 273.323 108.29 263.688 118.384 252.939C128.755 242.03 139.962 230.906 152.005 219.568C164.135 207.998 176.323 196.847 188.569 186.115C200.815 175.383 212.297 165.819 223.015 157.422C233.821 148.793 243.091 142.232 250.827 137.739C258.563 133.245 263.848 131.533 266.681 132.601C268.004 133.1 269.493 134.588 271.148 137.064C272.804 139.541 274.183 142.178 275.286 144.976C276.388 147.774 276.634 149.983 276.023 151.605C274.45 155.776 272.274 160.116 269.495 164.626C266.992 168.975 264.671 173.128 262.532 177.085C261.28 179.259 258.559 184.188 254.367 191.87C250.264 199.321 245.679 208.046 240.614 218.045C235.826 227.884 231.684 237.437 228.19 246.705C224.87 255.51 222.786 263.325 221.939 270.151C221.091 276.977 222.651 281.138 226.618 282.634C231.719 284.557 239.045 284.011 248.597 280.997C258.149 277.982 268.784 273.524 280.504 267.621C292.499 261.559 304.575 254.997 316.732 247.936C329.164 240.715 340.579 233.904 350.976 227.503C361.649 220.941 370.439 215.655 377.346 211.643C384.442 207.702 388.463 205.91 389.407 206.266C389.974 206.48 390.083 207.05 389.733 207.977C389.034 209.83 387.499 211.898 385.129 214.18C380.852 218.654 374.729 224.02 366.76 230.278C359.066 236.375 350.261 242.847 340.343 249.693C330.426 256.54 320.079 263.092 309.305 269.351C298.719 275.68 288.344 281.163 278.181 285.8C268.017 290.436 258.661 293.79 250.113 295.859C241.652 297.697 234.683 297.584 229.204 295.518C220.514 292.241 214.994 286.852 212.644 279.35C210.382 271.616 210.148 262.794 211.942 252.885C213.824 242.744 216.687 232.576 220.531 222.381C224.986 210.564 229.303 200.548 233.48 192.331C237.744 183.882 242.634 174.346 248.15 163.723C235.543 171.408 221.532 180.813 206.117 191.938C190.978 202.902 175.73 215.016 160.372 228.28C145.203 241.615 131.123 255.493 118.134 269.914C105.231 284.104 94.8074 298.302 86.8617 312.508C86.1486 313.827 85.2903 314.959 84.2867 315.903C83.2831 316.848 82.0257 317.036 80.5144 316.466ZM286.469 381.418C282.313 379.851 280.491 376.385 281.003 371.021C281.704 365.728 282.797 361.112 284.282 357.173C285.942 352.77 289.282 346.487 294.302 338.324C299.599 330 305.942 320.615 313.333 310.169C320.724 299.724 328.668 288.957 337.163 277.87C345.936 266.622 354.766 255.793 363.654 245.383C372.731 235.044 381.233 225.943 389.16 218.082C397.174 209.988 404.257 203.793 410.408 199.497C416.559 195.2 421.146 193.621 424.169 194.761C425.68 195.331 427.692 197.148 430.205 200.213C432.718 203.277 433.493 206.084 432.532 208.633C432.27 209.328 429.216 212.278 423.369 217.484C417.61 222.457 410.069 229.009 400.746 237.138C391.613 245.339 381.665 254.555 370.902 264.788C360.226 274.789 349.659 285.36 339.201 296.502C328.931 307.714 319.781 318.82 311.751 329.818C303.807 340.584 298.045 350.717 294.463 360.217L293.414 362.998C292.803 364.62 292.38 366.313 292.146 368.077C292 369.61 292.588 370.626 293.91 371.124C296.177 371.979 296.787 373.797 295.738 376.577C295.127 378.199 293.948 379.607 292.203 380.802C290.458 381.996 288.547 382.202 286.469 381.418Z" fill="#FFFFFF"/>
</svg>
